Gallery: 
 
http://imagedomino.com/?g=150816

Studio
Digital Playground
Starring
Erik Everhard, Manuel Ferrara, Toni Ribas, Scott Nails, Lou Charmelle, Jessie Volt, Selena Rose, Loni Evans
Genre
Feature
Description
Scott Nails and Erik Everhard are the perverted gym rots who got a lusty game going, scamming on the hot girls who come to workout. The naughty and beautiful Selena Rose is caught in their bad boy madness, teasing her into coming over for a date with Manuel Ferrara, only to make her their latest sexual conquest. But after two more hot girls get caught in their nasty game, Selena sneaks around and gets Manuel after all.

Duration                         : 1h 5mn
Bit rate                         : 1 361 Kbps
Width                            : 624 pixels
Height                           : 352 pixels
Display aspect ratio             : 16:9
Frame rate                       : 23.976 fps
Color space                      : YUV
Chroma subsampling               : 4:2:0
Bit depth                        : 8 bits
Scan type                        : Progressive
Compression mode                 : Lossy
Bits/(Pixel*Frame)               : 0.258
Stream size                      : 638 MiB (91%)

Duration                         : 1h 0mn
Bit rate                         : 1 484 Kbps
Width                            : 624 pixels
Height                           : 352 pixels
Display aspect ratio             : 16:9
Frame rate                       : 23.976 fps
Color space                      : YUV
Chroma subsampling               : 4:2:0
Bit depth                        : 8 bits
Scan type                        : Progressive
Compression mode                 : Lossy
Bits/(Pixel*Frame)               : 0.282
Stream size                      : 641 MiB (92%)